<?xml version="1.0" encoding="utf-8"?>
<!-- Generator: Adobe Illustrator 16.0.0, SVG Export Plug-In . SVG Version: 6.00 Build 0)  -->
<!DOCTYPE svg PUBLIC "-//W3C//DTD SVG 1.1//EN" "http://www.w3.org/Graphics/SVG/1.1/DTD/svg11.dtd">
<svg version="1.1" id="Layer_1" xmlns="http://www.w3.org/2000/svg" xmlns:xlink="http://www.w3.org/1999/xlink" x="0px" y="0px"
	 width="500px" height="104.981px" viewBox="0 0 500 104.981" enable-background="new 0 0 500 104.981" xml:space="preserve">
<g>
	<g>
		<path fill="#FFFFFF" d="M241.73,6.195l1.323,0.125l5.261-0.19c49.74-0.292,74.623-0.074,74.65,0.653
			c0.456-0.017,0.903,0.754,1.342,2.31c0.171,11.079,0.239,17.767,0.207,20.071c0.141,0.647,0.217,1.257,0.239,1.833
			c0.118,3.294-0.93,4.98-3.143,5.059c-10.767-0.071-16.687-0.089-17.753-0.051c-1.337,0.048-1.938,1.91-1.807,5.586
			c0.547,40.597,0.533,60.906-0.04,60.929l-0.731,0.37c-20.729,0.131-32.254,0.239-34.58,0.32c-1.982,0.072-3.007-0.871-3.079-2.822
			c0.095-7.943-0.01-26.152-0.303-54.643c-0.23-6.279-0.953-9.398-2.173-9.355l-0.014-0.345c-12.559,0.068-18.84-0.07-18.854-0.414
			c-1.03-0.999-1.576-2.399-1.639-4.199c-0.068-16.681,0.054-25.028,0.356-25.039C241.491,6.375,241.734,6.31,241.73,6.195z"/>
	</g>
	<g>
		<path fill="#FFFFFF" d="M325.055,2.487c26.992,0.974,44.817,1.962,53.483,2.961c7.091,1.691,12.744,4.453,16.963,8.285
			c2.714,2.875,5.541,6.913,8.494,12.123c1.495,3.554,2.308,8.859,2.443,15.914c0.108,5.413-1.96,10.61-6.2,15.594
			c-1.526,1.418-4.842,4.227-9.94,8.418c0,0.113-0.045,0.167-0.145,0.167c0.019,0.731,5.085,10.875,15.215,30.429
			c1.734,4.205,2.61,6.896,2.633,8.066c-0.289,0.226-1.012,0.401-2.177,0.537c-15.554-0.614-27.056-0.976-34.503-1.084
			c-1.359-0.122-2.786-0.971-4.271-2.552c-3.861-8.738-6.725-15.065-8.576-18.976c-1.27-1.843-2.063-2.76-2.389-2.755
			c-0.227,3.333-0.357,9.898-0.394,19.703c-0.271,2.782-1.179,4.19-2.731,4.223c-11.281-0.695-20.774-0.967-28.479-0.817
			l-1.215,0.022c-2.497-0.208-3.762-1.296-3.803-3.27l-0.009-0.551c-0.036-1.829,0.348-19.446,1.156-52.851
			c0.32-15.184,0.379-27.873,0.181-38.075l-0.027-1.427C320.715,3.909,322.142,2.543,325.055,2.487z M357.327,33.456
			c-0.866,2.066-1.232,6.626-1.097,13.68c0.031,1.574,1.277,2.426,3.743,2.562l0.972,0.146c4.922-0.096,8.092-1.784,9.52-5.069
			c0.492-1.252,0.727-2.609,0.695-4.07c-0.041-2.084-0.854-3.989-2.438-5.715c-1.351-1.144-4.164-1.674-8.437-1.591l-0.438,0.008
			c-0.515,0.01-1.292,0.083-2.326,0.211C357.521,33.509,357.454,33.454,357.327,33.456z"/>
	</g>
	<g>
		<path fill="#FFFFFF" d="M44.596,0c10.123,0.942,18.328,2.503,24.613,4.686c5.419,1.581,8.129,3.086,8.129,4.516v0.564
			c0,0.716-2.597,7.395-7.791,20.04c-0.979,2.522-2.184,3.782-3.613,3.782c-0.603,0-4.272-1.26-11.008-3.782
			c-2.258-0.715-4.366-1.073-6.322-1.073h-0.169c-3.161,0.338-4.742,1.43-4.742,3.274v0.169c0,2.071,5.118,4.535,15.354,7.395
			c12.042,3.952,19.701,9.014,22.975,15.187c2.408,3.648,3.613,9.917,3.613,18.796c0,4.254-1.995,8.995-5.983,14.226
			c-2.597,5.121-7.829,9.031-15.693,11.741c-5.947,3.013-11.854,4.517-17.726,4.517c-1.016,0.264-4.629,0.51-10.838,0.735
			c-5.232,0-13.417-1.449-24.556-4.349c-6.248-2.106-9.371-3.839-9.371-5.193v-0.393c0-0.492,3.123-8.373,9.371-23.655
			c0.602-1.201,1.316-1.807,2.146-1.807h0.564c0.639,0,4.064,1.621,10.273,4.854c4.742,1.807,8.542,2.71,11.403,2.71h1.242
			c3.875,0,5.814-1.129,5.814-3.387v-0.394c-1.28-2.184-4.177-3.934-8.693-5.252c-10.801-3.233-18.083-6.415-21.846-9.538
			c-4.14-3.877-6.661-7.245-7.564-10.105C1.392,43.072,0,38.857,0,35.62c0.941-9.521,1.787-14.282,2.541-14.282
			c3.913-8.166,9.389-13.642,16.427-16.427C22.919,2.804,31.461,1.167,44.596,0z"/>
	</g>
	<g>
		<path fill="#FFFFFF" d="M142.034,1.514h1.637c2.032,0,3.726,3.067,5.081,9.201c17.085,51.37,26.117,78.844,27.096,82.418
			c0.226,0.716,0.339,1.186,0.339,1.411c0,1.581-1.148,2.483-3.444,2.71c-14.038,0.262-23.615,0.508-28.733,0.733
			c-4.064-0.226-6.097-1.072-6.097-2.54c-0.677-1.129-1.524-3.651-2.541-7.564c-0.64-1.919-1.731-2.879-3.274-2.879l-20.04,0.508
			c-1.393,0-2.709,2.767-3.952,8.299c-0.829,3.764-2.221,5.645-4.177,5.645c-3.651,0-12.193,0.413-25.628,1.242
			c-0.151,0-0.339,0.057-0.564,0.169c-3.011,0-4.516-0.772-4.516-2.314c0-0.978,5.419-18.216,16.258-51.708
			c6.397-19.155,10.669-32.459,12.814-39.911c0.791-2.634,3.801-3.951,9.032-3.951L142.034,1.514z M122.164,48.142
			c-3.124,8.845-4.686,14.131-4.686,15.862v0.564c0,0.452,1.392,0.752,4.177,0.903c3.952-0.339,5.927-0.883,5.927-1.637
			c-1.807-5.983-3.181-10.744-4.121-14.282l-0.903-1.411H122.164z"/>
	</g>
	<g>
		<path fill="#FFFFFF" d="M465.847,4.49h1.638c2.032,0,3.726,3.067,5.08,9.201c17.087,51.37,26.118,78.843,27.097,82.417
			c0.226,0.716,0.338,1.186,0.338,1.411c0,1.581-1.148,2.484-3.443,2.71c-14.038,0.262-23.614,0.508-28.732,0.734
			c-4.064-0.227-6.098-1.073-6.098-2.541c-0.677-1.129-1.523-3.651-2.54-7.563c-0.641-1.92-1.731-2.88-3.274-2.88l-20.039,0.509
			c-1.394,0-2.71,2.766-3.952,8.298c-0.828,3.765-2.22,5.646-4.177,5.646c-3.651,0-12.193,0.413-25.629,1.241
			c-0.151,0-0.339,0.057-0.564,0.17c-3.01,0-4.516-0.772-4.516-2.314c0-0.978,5.419-18.216,16.258-51.709
			c6.396-19.155,10.669-32.459,12.813-39.911c0.791-2.634,3.801-3.952,9.032-3.952L465.847,4.49z M445.977,51.118
			c-3.125,8.845-4.686,14.13-4.686,15.863v0.564c0,0.451,1.394,0.752,4.177,0.903c3.952-0.339,5.928-0.883,5.928-1.638
			c-1.807-5.983-3.18-10.743-4.121-14.282l-0.903-1.411H445.977z"/>
	</g>
	<g>
		<path fill="#FFFFFF" d="M211.888,0.058c10.134,0.785,18.362,2.218,24.68,4.303c5.444,1.496,8.174,2.96,8.197,4.39l0.009,0.564
			c0.014,0.716-2.479,7.435-7.479,20.158c-0.939,2.537-2.123,3.815-3.552,3.837c-0.603,0.009-4.293-1.193-11.067-3.61
			c-2.267-0.68-4.38-1.005-6.338-0.974l-0.169,0.002c-3.155,0.387-4.72,1.504-4.69,3.348l0.002,0.169
			c0.032,2.069,5.189,4.455,15.467,7.155c12.104,3.765,19.839,8.708,23.208,14.827c2.466,3.615,3.767,9.861,3.906,18.74
			c0.063,4.254-1.855,9.024-5.765,14.315c-2.518,5.159-7.688,9.154-15.51,11.985c-5.898,3.101-11.782,4.699-17.653,4.789
			c-1.012,0.278-4.62,0.581-10.825,0.901c-5.232,0.081-13.438-1.242-24.62-3.965c-6.28-2.01-9.429-3.692-9.45-5.047l-0.005-0.396
			c-0.008-0.49,2.992-8.42,9.002-23.795c0.583-1.213,1.287-1.826,2.116-1.838l0.564-0.009c0.639-0.012,4.089,1.554,10.348,4.692
			c4.77,1.733,8.583,2.578,11.444,2.533l1.242-0.019c3.875-0.061,5.796-1.219,5.763-3.478l-0.009-0.396
			c-1.314-2.161-4.236-3.866-8.772-5.112c-10.85-3.069-18.18-6.138-21.992-9.199c-4.199-3.812-6.772-7.141-7.72-9.987
			c-2.864-5.15-4.322-9.343-4.372-12.58c0.794-9.535,1.565-14.308,2.318-14.319c3.787-8.226,9.176-13.786,16.171-16.681
			C190.255,3.197,198.771,1.428,211.888,0.058z"/>
	</g>
</g>
</svg>
